<svg width="38" height="43" viewBox="0 0 38 43" fill="none" xmlns="http://www.w3.org/2000/svg">
<path d="M12 11.9H11V12.9V19.2616L1.49869 10.75L11 2.23841V8.6V9.6H12H22C25.954 9.6 29.762 11.2878 32.5815 14.3189C35.4033 17.3523 37 21.4811 37 25.8C37 30.1189 35.4033 34.2477 32.5815 37.2811C29.762 40.3122 25.954 42 22 42H5V39.7H22C25.4721 39.7 28.786 38.2166 31.2175 35.6028C33.6467 32.9914 35 29.4641 35 25.8C35 22.1359 33.6467 18.6086 31.2175 15.9972C28.786 13.3834 25.4721 11.9 22 11.9H12Z" fill="black" stroke="black" stroke-width="2"/>
</svg>
