<?xml version="1.0" encoding="utf-8"?>
<!-- Generator: Adobe Illustrator 28.0.0, SVG Export Plug-In . SVG Version: 6.00 Build 0)  -->
<svg version="1.1" id="Layer_1" xmlns="http://www.w3.org/2000/svg" xmlns:xlink="http://www.w3.org/1999/xlink" x="0px" y="0px"
	 viewBox="0 0 1366 1028" style="enable-background:new 0 0 1366 1028;" xml:space="preserve">
<style type="text/css">
	.st0{fill-rule:evenodd;clip-rule:evenodd;fill:#32AAC5;fill-opacity:0.4;}
</style>
<path class="st0" d="M-0.33,1024.06V0.06h58.89c87.77,96.29,111.82,164.84,112.61,188c-0.83,20.33-15.1,65.7-65.5,84.5
	s-21,84.83,0,115.5l65.5,87c40.5,32.33,112,113.3,74,178.5c-19.01,32.61-58.59,54.74-96.55,75.95
	c-56.9,31.8-110.14,61.56-84.95,121.55c21.42,51,37.61,118.13,48.13,173H-0.33z M-135.33,1026.54l-1,8.52l1,0.25V1026.54z"/>
<path class="st0" d="M1365.67,615.21c-41.18,26.07-112.25,87.96-92.03,144.35c9.59,26.76,18.99,45.75,26.56,61.08
	c12.96,26.2,20.62,41.68,14.94,66.92c-7.2,32-66.67,77-95.5,95.5c-15.19,9.14-40.68,27.67-43.68,41h189.71V615.21z"/>
</svg>
