<?xml version="1.0" encoding="utf-8"?>
<!-- Generator: Adobe Illustrator 28.0.0, SVG Export Plug-In . SVG Version: 6.00 Build 0)  -->
<svg version="1.1" id="Layer_1" xmlns="http://www.w3.org/2000/svg" xmlns:xlink="http://www.w3.org/1999/xlink" x="0px" y="0px"
	 viewBox="0 0 1366 1028" style="enable-background:new 0 0 1366 1028;" xml:space="preserve">
<style type="text/css">
	.st0{fill-rule:evenodd;clip-rule:evenodd;fill:#ADDDE8;}
</style>
<path class="st0" d="M1366.42-0.19h-587.5v11.5c5.5,41.33,41.7,121,142.5,109c50.71-6.04,83.36-25.11,113.72-42.85
	c45.09-26.34,85.14-49.74,171.78-23.15c145,44.5,113,147,102.5,172.5c-9.89,24.01-51.69,129.15,57,98.77V-0.19z"/>
<path class="st0" d="M358.45,1027.81c-22.03-17.47-44.33-36.83-61.04-54.97c-37.2-40.4-83-50.12-106-49.03
	c-42,2-124.4,4.13-148-49.47c-18.97-43.09-12.71-55.16,14.92-108.44c15.33-29.56,37.24-71.8,65.08-139.06
	c55.2-133.41-45.96-167.6-123-168.99v569.96H358.45z"/>
</svg>
