<?xml version="1.0" encoding="utf-8"?>
<!-- Generator: Adobe Illustrator 28.0.0, SVG Export Plug-In . SVG Version: 6.00 Build 0)  -->
<svg version="1.1" id="Layer_1" xmlns="http://www.w3.org/2000/svg" xmlns:xlink="http://www.w3.org/1999/xlink" x="0px" y="0px"
	 viewBox="0 0 1366 1024" style="enable-background:new 0 0 1366 1024;" xml:space="preserve">
<style type="text/css">
	.st0{fill-rule:evenodd;clip-rule:evenodd;fill:#32AAC5;fill-opacity:0.4;}
</style>
<path class="st0" d="M179.96,875.42C84.41,895.61,7.7,911.82,0,850.54v-22.83c0.82-8.21,2.44-17.34,4.93-27.47
	C17.1,750.59,12.94,706.89,0,669.75V220.17c47.22,22.66,99.81,69.87,129.72,159.74c48.54,145.87,217.52,78.33,295.95,26.33
	c92.54-44.71,299.15-100.56,385.25,33.78c45.17,70.49,9.46,135.46-21.2,191.24c-42.39,77.12-75.12,136.67,128.82,168.96
	c276.22,43.73,420.38-3.57,460.47-34.14V1024H527.39c-0.69-70.02-31.99-168.02-156.68-173.09
	C308.03,848.36,240.24,862.68,179.96,875.42z"/>
</svg>