<svg width="75" height="80" viewBox="0 0 75 80" fill="none" xmlns="http://www.w3.org/2000/svg">
<path d="M9.375 0H65.625C68.1114 0 70.496 0.842854 72.2541 2.34315C74.0123 3.84344 75 5.87827 75 8V72C75 74.1217 74.0123 76.1566 72.2541 77.6569C70.496 79.1572 68.1114 80 65.625 80H9.375C6.8886 80 4.50403 79.1572 2.74587 77.6569C0.98772 76.1566 0 74.1217 0 72V8C0 5.87827 0.98772 3.84344 2.74587 2.34315C4.50403 0.842854 6.8886 0 9.375 0ZM14.0625 8C12.8193 8 11.627 8.42143 10.7479 9.17157C9.86886 9.92172 9.375 10.9391 9.375 12C9.375 13.0609 9.86886 14.0783 10.7479 14.8284C11.627 15.5786 12.8193 16 14.0625 16C15.3057 16 16.498 15.5786 17.3771 14.8284C18.2561 14.0783 18.75 13.0609 18.75 12C18.75 10.9391 18.2561 9.92172 17.3771 9.17157C16.498 8.42143 15.3057 8 14.0625 8ZM28.125 8C26.8818 8 25.6895 8.42143 24.8104 9.17157C23.9314 9.92172 23.4375 10.9391 23.4375 12C23.4375 13.0609 23.9314 14.0783 24.8104 14.8284C25.6895 15.5786 26.8818 16 28.125 16C29.3682 16 30.5605 15.5786 31.4396 14.8284C32.3186 14.0783 32.8125 13.0609 32.8125 12C32.8125 10.9391 32.3186 9.92172 31.4396 9.17157C30.5605 8.42143 29.3682 8 28.125 8ZM37.5 24C30.0408 24 22.8871 26.5286 17.6126 31.0294C12.3382 35.5303 9.375 41.6348 9.375 48C9.375 54.3652 12.3382 60.4697 17.6126 64.9706C22.8871 69.4714 30.0408 72 37.5 72C44.9592 72 52.1129 69.4714 57.3874 64.9706C62.6618 60.4697 65.625 54.3652 65.625 48C65.625 41.6348 62.6618 35.5303 57.3874 31.0294C52.1129 26.5286 44.9592 24 37.5 24ZM19.2656 34H28.125C27 39.52 28.125 42.68 30.8438 45.16C36 49.44 38.25 54.84 36.9844 62H28.125C29.25 56.48 28.125 53.32 25.4062 50.84C20.25 46.56 18.0469 41.16 19.2656 34ZM38.0156 34H46.875C45.75 39.52 46.875 42.68 49.5938 45.16C54.75 49.44 57 54.84 55.7344 62H46.875C48 56.48 46.875 53.32 44.1562 50.84C39 46.56 36.7969 41.16 38.0156 34Z" fill="white"/>
</svg>
