<svg width="33" height="33" viewBox="0 0 33 33" fill="none" xmlns="http://www.w3.org/2000/svg">
<path d="M16.5 27.5C19.4174 27.5 22.2153 26.3411 24.2782 24.2782C26.3411 22.2153 27.5 19.4174 27.5 16.5C27.5 13.5826 26.3411 10.7847 24.2782 8.72183C22.2153 6.65893 19.4174 5.5 16.5 5.5C13.5826 5.5 10.7847 6.65893 8.72183 8.72183C6.65893 10.7847 5.5 13.5826 5.5 16.5C5.5 19.4174 6.65893 22.2153 8.72183 24.2782C10.7847 26.3411 13.5826 27.5 16.5 27.5ZM16.5 30.25C8.90588 30.25 2.75 24.0941 2.75 16.5C2.75 8.90588 8.90588 2.75 16.5 2.75C24.0941 2.75 30.25 8.90588 30.25 16.5C30.25 24.0941 24.0941 30.25 16.5 30.25ZM15.125 22H17.875V24.75H15.125V22ZM15.125 8.25H17.875V19.25H15.125V8.25Z" fill="black"/>
</svg>
