<svg width="108" height="92" viewBox="0 0 108 92" fill="none" xmlns="http://www.w3.org/2000/svg">
<mask id="mask0_305_3" style="mask-type:luminance" maskUnits="userSpaceOnUse" x="16" y="5" width="76" height="82">
<path d="M85.5 7.66675H22.5C20.0147 7.66675 18 9.38299 18 11.5001V80.5001C18 82.6172 20.0147 84.3334 22.5 84.3334H85.5C87.9853 84.3334 90 82.6172 90 80.5001V11.5001C90 9.38299 87.9853 7.66675 85.5 7.66675Z" stroke="white" stroke-width="4"/>
<path d="M18 23.0001C18 24.0167 18.4741 24.9918 19.318 25.7107C20.1619 26.4295 21.3065 26.8334 22.5 26.8334H85.5C86.6935 26.8334 87.8381 26.4295 88.682 25.7107C89.5259 24.9918 90 24.0167 90 23.0001V11.5001C90 10.4834 89.5259 9.50839 88.682 8.78951C87.8381 8.07062 86.6935 7.66675 85.5 7.66675H22.5C21.3065 7.66675 20.1619 8.07062 19.318 8.78951C18.4741 9.50839 18 10.4834 18 11.5001V23.0001Z" fill="white" stroke="white" stroke-width="4"/>
<path d="M31.5 21.0834C33.9853 21.0834 36 19.3672 36 17.2501C36 15.133 33.9853 13.4167 31.5 13.4167C29.0147 13.4167 27 15.133 27 17.2501C27 19.3672 29.0147 21.0834 31.5 21.0834Z" fill="black"/>
<path d="M45 21.0834C47.4853 21.0834 49.5 19.3672 49.5 17.2501C49.5 15.133 47.4853 13.4167 45 13.4167C42.5147 13.4167 40.5 15.133 40.5 17.2501C40.5 19.3672 42.5147 21.0834 45 21.0834Z" fill="black"/>
<path d="M54 69.0001C62.6985 69.0001 69.75 62.9932 69.75 55.5834C69.75 48.1736 62.6985 42.1667 54 42.1667C45.3015 42.1667 38.25 48.1736 38.25 55.5834C38.25 62.9932 45.3015 69.0001 54 69.0001Z" fill="white" stroke="white" stroke-width="4"/>
</mask>
<g mask="url(#mask0_305_3)">
<path d="M0 0H108V92H0V0Z" fill="white"/>
</g>
</svg>
