<?xml version="1.0" encoding="utf-8"?>
<!-- Generator: Adobe Illustrator 28.0.0, SVG Export Plug-In . SVG Version: 6.00 Build 0)  -->
<svg version="1.1" id="Layer_1" xmlns="http://www.w3.org/2000/svg" xmlns:xlink="http://www.w3.org/1999/xlink" x="0px" y="0px"
	 viewBox="0 0 1366 1024" style="enable-background:new 0 0 1366 1024;" xml:space="preserve">
<style type="text/css">
	.st0{fill-rule:evenodd;clip-rule:evenodd;fill:#32AAC5;fill-opacity:0.4;}
</style>
<path class="st0" d="M1366,0H786v29.5c5.5,41.33,41.7,121,142.5,109c50.71-6.04,83.36-25.11,113.72-42.85
	c45.09-26.34,85.14-49.74,171.78-23.15c145,44.5,113,147,102.5,172.5c-9.65,23.44-49.72,124.2,49.5,100.71V0z"/>
<path class="st0" d="M0,1024h421.5c-31.98-22.59-77.61-57.6-106.5-88.97c-37.2-40.4-83-50.12-106-49.03c-42,2-124.4,4.13-148-49.47
	c-18.97-43.09-12.71-55.16,14.92-108.44c15.33-29.56,37.25-71.8,65.08-139.06C200.64,444.91,77.78,416.57,0,420.31V1024z"/>
</svg>